<svg width="37" height="31" viewBox="0 0 37 31" fill="none" xmlns="http://www.w3.org/2000/svg">
<path d="M1.14522 15.332H4.70922V11.614H7.28322V15.332H10.8692V17.796H7.28322V21.558H4.70922V17.796H1.14522V15.332Z" fill="#527C77"/>
<path d="M21.4445 26.8888C22.6718 26.8888 23.6667 25.8939 23.6667 24.6666C23.6667 23.4393 22.6718 22.4443 21.4445 22.4443C20.2172 22.4443 19.2222 23.4393 19.2222 24.6666C19.2222 25.8939 20.2172 26.8888 21.4445 26.8888Z" fill="#527C77"/>
<path d="M32.5555 26.8888C33.7828 26.8888 34.7778 25.8939 34.7778 24.6666C34.7778 23.4393 33.7828 22.4443 32.5555 22.4443C31.3282 22.4443 30.3333 23.4393 30.3333 24.6666C30.3333 25.8939 31.3282 26.8888 32.5555 26.8888Z" fill="#527C77"/>
<path d="M36.9967 11.3333H22.7L21.7167 8.72C21.637 8.50828 21.4947 8.32591 21.3087 8.19725C21.1226 8.06859 20.9018 7.99977 20.6756 8H17V10.2222H19.92L20.3333 11.3333L22.9644 19.2256C23.0567 19.5024 23.2026 19.7584 23.3938 19.9789C23.5851 20.1994 23.8178 20.3801 24.0789 20.5106C24.3399 20.6411 24.6241 20.7189 24.9152 20.7396C25.2063 20.7603 25.4987 20.7234 25.7756 20.6311L35.48 17.3956C35.9229 17.2481 36.308 16.9648 36.5809 16.5861C36.8537 16.2074 37.0003 15.7523 37 15.2856L36.9967 11.3333Z" fill="#527C77"/>
</svg>
