<svg width="20" height="19" viewBox="0 0 20 19" fill="none" xmlns="http://www.w3.org/2000/svg">
<path d="M4.44445 18.8889C5.67175 18.8889 6.66667 17.894 6.66667 16.6667C6.66667 15.4394 5.67175 14.4445 4.44445 14.4445C3.21715 14.4445 2.22223 15.4394 2.22223 16.6667C2.22223 17.894 3.21715 18.8889 4.44445 18.8889Z" fill="#527C77"/>
<path d="M15.5555 18.8889C16.7828 18.8889 17.7778 17.894 17.7778 16.6667C17.7778 15.4394 16.7828 14.4445 15.5555 14.4445C14.3282 14.4445 13.3333 15.4394 13.3333 16.6667C13.3333 17.894 14.3282 18.8889 15.5555 18.8889Z" fill="#527C77"/>
<path d="M19.9967 3.33333H5.7L4.71667 0.72C4.63705 0.508282 4.49471 0.325908 4.30867 0.197249C4.12263 0.0685893 3.90175 -0.000225596 3.67556 5.55631e-07H0V2.22222H2.92L3.33333 3.33333L5.96444 11.2256C6.05672 11.5024 6.20263 11.7584 6.39384 11.9789C6.58506 12.1994 6.81783 12.3801 7.07887 12.5106C7.33991 12.6411 7.62411 12.7189 7.91523 12.7396C8.20635 12.7603 8.49869 12.7234 8.77556 12.6311L18.48 9.39556C18.9229 9.24806 19.308 8.96485 19.5809 8.58611C19.8537 8.20737 20.0003 7.75233 20 7.28556L19.9967 3.33333Z" fill="#527C77"/>
</svg>
