<svg width="29" height="21" viewBox="0 0 29 21" fill="none" xmlns="http://www.w3.org/2000/svg">
<path fill-rule="evenodd" clip-rule="evenodd" d="M15.1706 10C17.3797 10 19.1706 8.20914 19.1706 6C19.1706 3.79086 15.1706 0 15.1706 0C15.1706 0 11.1706 3.79086 11.1706 6C11.1706 8.20914 12.9615 10 15.1706 10ZM9.72237 12.2493C12.9984 15.5354 12.8627 20.9992 12.8627 20.9992C12.8627 20.9992 7.41556 21.1353 4.13955 17.8493C0.86353 14.5632 0.999207 9.09939 0.999207 9.09939C0.999207 9.09939 6.44636 8.96329 9.72237 12.2493ZM20.2742 12.2493C16.9982 15.5354 17.1338 20.9992 17.1338 20.9992C17.1338 20.9992 22.581 21.1353 25.857 17.8493C29.133 14.5632 28.9973 9.0994 28.9973 9.0994C28.9973 9.0994 23.5502 8.9633 20.2742 12.2493Z" fill="white"/>
</svg>
