<svg width="97" height="28" viewBox="0 0 97 28" fill="none" xmlns="http://www.w3.org/2000/svg">
<path d="M9.35 0.950012C10.55 0.950012 11.6667 1.18335 12.7 1.65001C13.7667 2.08335 14.6833 2.70001 15.45 3.50001C16.25 4.30001 16.8667 5.23335 17.3 6.30001C17.7667 7.33335 18 8.45001 18 9.65001C18 10.85 17.7667 11.9833 17.3 13.05C16.8667 14.0833 16.25 15 15.45 15.8C14.6833 16.6 13.7667 17.2333 12.7 17.7C11.6667 18.1333 10.55 18.35 9.35 18.35H3.25V23.8V25.4C3.25 25.8333 3.08333 26.2167 2.75 26.55C2.45 26.85 2.06667 27 1.6 27C1.16667 27 0.783333 26.85 0.45 26.55C0.15 26.2167 0 25.8333 0 25.4V2.60001C0 2.13335 0.15 1.75001 0.45 1.45001C0.783333 1.11668 1.16667 0.950012 1.6 0.950012H9.35ZM9.35 17.25C10.0833 17.25 10.7667 17.05 11.4 16.65C12.0667 16.25 12.65 15.7167 13.15 15.05C13.65 14.35 14.0333 13.55 14.3 12.65C14.6 11.7167 14.75 10.7167 14.75 9.65001C14.75 8.61668 14.6 7.63335 14.3 6.70001C14.0333 5.76668 13.65 4.96668 13.15 4.30001C12.65 3.60001 12.0667 3.05001 11.4 2.65001C10.7667 2.25001 10.0833 2.05001 9.35 2.05001H3.25V2.60001V17.25H9.35Z" fill="white"/>
<path d="M26.2547 11.7C27.088 11.7 27.8714 11.8333 28.6047 12.1C29.3714 12.3333 30.0714 12.6833 30.7047 13.15C30.8047 12.8167 30.9547 12.5333 31.1547 12.3C31.488 11.9667 31.8714 11.8 32.3047 11.8C32.7714 11.8 33.1547 11.9667 33.4547 12.3C33.788 12.6 33.9547 12.9833 33.9547 13.45V25.4C33.9547 25.8333 33.788 26.2 33.4547 26.5C33.1547 26.8333 32.7714 27 32.3047 27C31.8714 27 31.488 26.8333 31.1547 26.5C30.9547 26.3333 30.8047 26.0667 30.7047 25.7C29.4047 26.6333 27.9214 27.1 26.2547 27.1C25.188 27.1 24.188 26.9 23.2547 26.5C22.3214 26.1 21.5047 25.55 20.8047 24.85C20.1047 24.15 19.5547 23.3333 19.1547 22.4C18.7547 21.4667 18.5547 20.4667 18.5547 19.4C18.5547 18.3333 18.7547 17.3333 19.1547 16.4C19.5547 15.4667 20.1047 14.65 20.8047 13.95C21.5047 13.25 22.3214 12.7 23.2547 12.3C24.188 11.9 25.188 11.7 26.2547 11.7ZM30.7047 14.55C30.138 14.0167 29.4714 13.6 28.7047 13.3C27.9714 13 27.188 12.8333 26.3547 12.8H26.2547C25.6547 12.8 25.088 12.9833 24.5547 13.35C24.0214 13.6833 23.5547 14.15 23.1547 14.75C22.7547 15.35 22.438 16.05 22.2047 16.85C21.9714 17.65 21.8547 18.5 21.8547 19.4C21.8547 20.3 21.9714 21.15 22.2047 21.95C22.438 22.75 22.7547 23.45 23.1547 24.05C23.5547 24.65 24.0214 25.1333 24.5547 25.5C25.088 25.8333 25.6547 26 26.2547 26H26.4547C27.288 25.9667 28.0547 25.8 28.7547 25.5C29.488 25.2 30.138 24.8 30.7047 24.3V14.55Z" fill="white"/>
<path d="M40.1617 12.95L44.1117 23.75L48.3117 12.2C48.3117 12.2 48.3284 12.1833 48.3617 12.15C48.4284 11.9167 48.5951 11.8 48.8617 11.8C49.1951 11.8 49.3617 11.9833 49.3617 12.35V12.55L44.9117 24.7C44.7451 25.2 44.5451 25.7167 44.3117 26.25C44.1117 26.75 43.6784 27 43.0117 27C42.3117 27 41.8451 26.75 41.6117 26.25C41.3784 25.75 41.1784 25.25 41.0117 24.75L37.1117 14.05C37.0451 13.85 37.0117 13.65 37.0117 13.45C37.0117 12.9833 37.1617 12.6 37.4617 12.3C37.7951 11.9667 38.1784 11.8 38.6117 11.8C38.9784 11.8 39.2951 11.9 39.5617 12.1C39.8284 12.3 40.0284 12.55 40.1617 12.85V12.95Z" fill="white"/>
<path d="M53.0332 13.45C53.0332 12.9833 53.1832 12.6 53.4832 12.3C53.8165 11.9667 54.2165 11.8 54.6832 11.8C55.1499 11.8 55.5332 11.9667 55.8332 12.3C56.1332 12.6 56.2832 12.9833 56.2832 13.45V25.4C56.2832 25.8333 56.1332 26.2167 55.8332 26.55C55.5332 26.85 55.1499 27 54.6832 27C54.2165 27 53.8165 26.85 53.4832 26.55C53.1832 26.2167 53.0332 25.8333 53.0332 25.4V13.45ZM52.7832 6.20001C52.7832 5.66668 52.9665 5.21668 53.3332 4.85001C53.6999 4.48335 54.1499 4.30001 54.6832 4.30001C55.2165 4.30001 55.6665 4.48335 56.0332 4.85001C56.3999 5.21668 56.5832 5.66668 56.5832 6.20001C56.5832 6.73335 56.3999 7.18335 56.0332 7.55001C55.6665 7.88335 55.2165 8.05001 54.6832 8.05001C54.1499 8.05001 53.6999 7.88335 53.3332 7.55001C52.9665 7.18335 52.7832 6.73335 52.7832 6.20001Z" fill="white"/>
<path d="M59.668 4.45001C59.668 3.98335 59.818 3.60001 60.118 3.30001C60.418 2.96668 60.8013 2.80001 61.268 2.80001C61.7346 2.80001 62.118 2.96668 62.418 3.30001C62.7513 3.60001 62.918 3.98335 62.918 4.45001V12.2H66.218C66.5846 12.2 66.768 12.3667 66.768 12.7C66.768 13.0667 66.5846 13.25 66.218 13.25H62.918V19.45C62.918 20.35 63.0346 21.2 63.268 22C63.5013 22.7667 63.8013 23.45 64.168 24.05C64.568 24.6167 65.018 25.0667 65.518 25.4C66.0513 25.7333 66.618 25.9 67.218 25.9C67.5846 25.9 67.768 26.0833 67.768 26.45C67.768 26.8167 67.5846 27 67.218 27C66.1846 27 65.2013 26.8 64.268 26.4C63.368 26 62.568 25.4667 61.868 24.8C61.2013 24.1 60.668 23.3 60.268 22.4C59.868 21.4667 59.668 20.4833 59.668 19.45V4.45001Z" fill="white"/>
<path d="M70.6566 13.45C70.6566 13.25 70.6733 13.0667 70.7066 12.9C70.74 12.7333 70.8733 12.5333 71.1066 12.3C71.3733 12.0333 71.74 11.8833 72.2066 11.85C72.7066 11.8167 73.1066 11.9667 73.4066 12.3C73.7066 12.6 73.8733 12.9 73.9066 13.2C74.5066 12.7667 75.1733 12.4333 75.9066 12.2C76.64 11.9333 77.4233 11.8 78.2566 11.8C78.4233 11.8 78.5733 11.8167 78.7066 11.85C78.8733 11.85 79.04 11.8667 79.2066 11.9C79.4733 11.9 79.6566 11.95 79.7566 12.05C79.9566 12.3167 79.9566 12.5833 79.7566 12.85C79.69 12.9167 79.6066 12.95 79.5066 12.95C79.44 12.9833 79.3566 13 79.2566 13C79.19 12.9667 79.1233 12.95 79.0566 12.95C78.9233 12.9167 78.79 12.9 78.6566 12.9C78.5566 12.9 78.4566 12.9 78.3566 12.9C77.5566 12.9 76.8733 13.1167 76.3066 13.55C75.7733 13.9833 75.3233 14.5333 74.9566 15.2C74.59 15.8667 74.3233 16.5833 74.1566 17.35C73.99 18.0833 73.9066 18.7667 73.9066 19.4V25.25C73.9066 25.4167 73.89 25.55 73.8566 25.65C73.79 26.0167 73.6066 26.3333 73.3066 26.6C73.04 26.8333 72.7066 26.9667 72.3066 27C71.7733 27 71.3566 26.8333 71.0566 26.5C70.79 26.1333 70.6566 25.7 70.6566 25.2V13.45Z" fill="white"/>
<path d="M88.3152 11.7C89.1486 11.7 89.9319 11.8333 90.6652 12.1C91.4319 12.3333 92.1319 12.6833 92.7652 13.15C92.8652 12.8167 93.0152 12.5333 93.2152 12.3C93.5486 11.9667 93.9319 11.8 94.3652 11.8C94.8319 11.8 95.2152 11.9667 95.5152 12.3C95.8486 12.6 96.0152 12.9833 96.0152 13.45V25.4C96.0152 25.8333 95.8486 26.2 95.5152 26.5C95.2152 26.8333 94.8319 27 94.3652 27C93.9319 27 93.5486 26.8333 93.2152 26.5C93.0152 26.3333 92.8652 26.0667 92.7652 25.7C91.4652 26.6333 89.9819 27.1 88.3152 27.1C87.2486 27.1 86.2486 26.9 85.3152 26.5C84.3819 26.1 83.5652 25.55 82.8652 24.85C82.1652 24.15 81.6152 23.3333 81.2152 22.4C80.8152 21.4667 80.6152 20.4667 80.6152 19.4C80.6152 18.3333 80.8152 17.3333 81.2152 16.4C81.6152 15.4667 82.1652 14.65 82.8652 13.95C83.5652 13.25 84.3819 12.7 85.3152 12.3C86.2486 11.9 87.2486 11.7 88.3152 11.7ZM92.7652 14.55C92.1986 14.0167 91.5319 13.6 90.7652 13.3C90.0319 13 89.2486 12.8333 88.4152 12.8H88.3152C87.7152 12.8 87.1486 12.9833 86.6152 13.35C86.0819 13.6833 85.6152 14.15 85.2152 14.75C84.8152 15.35 84.4986 16.05 84.2652 16.85C84.0319 17.65 83.9152 18.5 83.9152 19.4C83.9152 20.3 84.0319 21.15 84.2652 21.95C84.4986 22.75 84.8152 23.45 85.2152 24.05C85.6152 24.65 86.0819 25.1333 86.6152 25.5C87.1486 25.8333 87.7152 26 88.3152 26H88.5152C89.3486 25.9667 90.1152 25.8 90.8152 25.5C91.5486 25.2 92.1986 24.8 92.7652 24.3V14.55Z" fill="white"/>
</svg>
